<svg xmlns="http://www.w3.org/2000/svg" width="204" height="183" viewBox="0 0 204 183">
  <g id="グループ_37" data-name="グループ 37" transform="translate(-631 -320)">
    <g id="長方形_59" data-name="長方形 59" transform="translate(631 320)" fill="rgba(255,255,255,0.42)" stroke="#707070" stroke-width="3">
      <rect width="204" height="183" rx="30" stroke="none"/>
      <rect x="1.5" y="1.5" width="201" height="180" rx="28.5" fill="none"/>
    </g>
    <g id="長方形_70" data-name="長方形 70" transform="translate(665 347.5)" fill="#ddd" stroke="#707070" stroke-width="1">
      <rect width="76" height="153" stroke="none"/>
      <rect x="0.5" y="0.5" width="75" height="152" fill="none"/>
    </g>
    <g id="長方形_71" data-name="長方形 71" transform="translate(750 401.5)" fill="#ddd" stroke="#707070" stroke-width="1">
      <rect width="49" height="99" stroke="none"/>
      <rect x="0.5" y="0.5" width="48" height="98" fill="none"/>
    </g>
    <g id="グループ_48" data-name="グループ 48" transform="translate(-227 -24.5)">
      <g id="長方形_72" data-name="長方形 72" transform="translate(906 391)" fill="#8f8682" stroke="#707070" stroke-width="1">
        <rect width="47" height="7" stroke="none"/>
        <rect x="0.5" y="0.5" width="46" height="6" fill="none"/>
      </g>
      <g id="長方形_73" data-name="長方形 73" transform="translate(906 408)" fill="#8f8682" stroke="#707070" stroke-width="1">
        <rect width="47" height="7" stroke="none"/>
        <rect x="0.5" y="0.5" width="46" height="6" fill="none"/>
      </g>
      <g id="長方形_74" data-name="長方形 74" transform="translate(906 425)" fill="#8f8682" stroke="#707070" stroke-width="1">
        <rect width="47" height="7" stroke="none"/>
        <rect x="0.5" y="0.5" width="46" height="6" fill="none"/>
      </g>
      <g id="長方形_75" data-name="長方形 75" transform="translate(906 442)" fill="#8f8682" stroke="#707070" stroke-width="1">
        <rect width="47" height="7" stroke="none"/>
        <rect x="0.5" y="0.5" width="46" height="6" fill="none"/>
      </g>
      <g id="長方形_76" data-name="長方形 76" transform="translate(906 459)" fill="#8f8682" stroke="#707070" stroke-width="1">
        <rect width="47" height="7" stroke="none"/>
        <rect x="0.5" y="0.5" width="46" height="6" fill="none"/>
      </g>
      <g id="長方形_77" data-name="長方形 77" transform="translate(906 476)" fill="#8f8682" stroke="#707070" stroke-width="1">
        <rect width="47" height="7" stroke="none"/>
        <rect x="0.5" y="0.5" width="46" height="6" fill="none"/>
      </g>
      <g id="長方形_78" data-name="長方形 78" transform="translate(984 436)" fill="#8f8682" stroke="#707070" stroke-width="1">
        <rect width="35" height="7" stroke="none"/>
        <rect x="0.5" y="0.5" width="34" height="6" fill="none"/>
      </g>
      <g id="長方形_79" data-name="長方形 79" transform="translate(984 451)" fill="#8f8682" stroke="#707070" stroke-width="1">
        <rect width="35" height="7" stroke="none"/>
        <rect x="0.5" y="0.5" width="34" height="6" fill="none"/>
      </g>
      <g id="長方形_80" data-name="長方形 80" transform="translate(984 466)" fill="#8f8682" stroke="#707070" stroke-width="1">
        <rect width="35" height="7" stroke="none"/>
        <rect x="0.5" y="0.5" width="34" height="6" fill="none"/>
      </g>
      <g id="長方形_81" data-name="長方形 81" transform="translate(984 481)" fill="#8f8682" stroke="#707070" stroke-width="1">
        <rect width="35" height="7" stroke="none"/>
        <rect x="0.5" y="0.5" width="34" height="6" fill="none"/>
      </g>
      <g id="長方形_82" data-name="長方形 82" transform="translate(906 502)" fill="#8f8682" stroke="#707070" stroke-width="1">
        <rect width="22" height="22" stroke="none"/>
        <rect x="0.5" y="0.5" width="21" height="21" fill="none"/>
      </g>
      <g id="長方形_83" data-name="長方形 83" transform="translate(930 502)" fill="#8f8682" stroke="#707070" stroke-width="1">
        <rect width="22" height="22" stroke="none"/>
        <rect x="0.5" y="0.5" width="21" height="21" fill="none"/>
      </g>
      <g id="長方形_84" data-name="長方形 84" transform="translate(985 502)" fill="#8f8682" stroke="#707070" stroke-width="1">
        <rect width="13" height="22" stroke="none"/>
        <rect x="0.5" y="0.5" width="12" height="21" fill="none"/>
      </g>
    </g>
  </g>
</svg>
